<svg width="30" height="30" viewBox="0 0 30 30" fill="none" xmlns="http://www.w3.org/2000/svg">
<path d="M18.1249 15.001C18.1249 16.7269 16.7257 18.126 14.9999 18.126C13.274 18.126 11.8749 16.7269 11.8749 15.001C11.8749 13.2751 13.274 11.876 14.9999 11.876C16.7257 11.876 18.1249 13.2751 18.1249 15.001Z" stroke="#28A745" stroke-width="1.875" stroke-linecap="round" stroke-linejoin="round"/>
<path d="M20 6.25098C23.0992 6.25098 25.2379 6.73123 26.4161 7.09638C27.0945 7.30661 27.5 7.94959 27.5 8.65979V20.8539C27.5 22.2478 25.9649 23.2965 24.5953 23.0379C23.4201 22.816 21.8884 22.6378 20 22.6378C14.0614 22.6378 12.637 24.8949 3.931 22.975C3.09081 22.7898 2.5 22.0341 2.5 21.1738V8.65243C2.5 7.4326 3.65099 6.54305 4.84747 6.78048C12.7459 8.3478 14.2761 6.25098 20 6.25098Z" stroke="#28A745" stroke-width="1.875" stroke-linecap="round" stroke-linejoin="round"/>
<path d="M2.5 11.251C4.93916 11.251 7.13104 9.25731 7.41126 7.19368M23.1256 6.87598C23.1256 9.42553 25.3319 11.8372 27.5 11.8372M27.5 18.751C25.1261 18.751 22.8251 20.3888 22.6275 22.6239M7.50061 23.1211C7.50061 20.3596 5.26204 18.1211 2.50061 18.1211" stroke="#28A745" stroke-width="1.875" stroke-linecap="round" stroke-linejoin="round"/>
</svg>
