<svg width="30" height="30" viewBox="0 0 30 30" fill="none" xmlns="http://www.w3.org/2000/svg">
<path d="M12.5 10.625H10.8839C10.3179 10.625 9.77518 10.8498 9.375 11.25M17.5 10.625H19.1161C19.682 10.625 20.2249 10.8498 20.625 11.25" stroke="#28A745" stroke-width="1.875" stroke-linecap="round" stroke-linejoin="round"/>
<path d="M15 27.5C21.9036 27.5 27.5 21.9036 27.5 15C27.5 8.09644 21.9036 2.5 15 2.5C8.09644 2.5 2.5 8.09644 2.5 15C2.5 21.9036 8.09644 27.5 15 27.5Z" stroke="#28A745" stroke-width="1.875" stroke-linecap="round" stroke-linejoin="round"/>
<path d="M9.14141 22.3997C8.61996 20.6919 8.6197 18.0621 9.1396 16.3531C9.46261 15.2914 10.3724 15 11.3971 15H18.6029C19.6263 15 20.5355 15.2909 20.859 16.3509C21.3804 18.0595 21.3804 20.6905 20.859 22.3991C20.5355 23.4591 19.6263 23.75 18.6029 23.75H11.3971C10.3742 23.75 9.46493 23.4594 9.14141 22.3997Z" stroke="#28A745" stroke-width="1.875" stroke-linecap="round" stroke-linejoin="round"/>
<path d="M8.75 16.875L2.5 15M21.25 16.875L27.5 15M8.75 21.875L4.375 21.25M21.25 21.875L25.625 21.25" stroke="#28A745" stroke-width="1.875" stroke-linecap="round" stroke-linejoin="round"/>
</svg>
