<svg width="30" height="30" viewBox="0 0 30 30" fill="none" xmlns="http://www.w3.org/2000/svg">
<path d="M24.375 24.375C24.375 26.1009 22.9759 27.5 21.25 27.5C19.5241 27.5 18.125 26.1009 18.125 24.375C18.125 22.6491 19.5241 21.25 21.25 21.25C22.9759 21.25 24.375 22.6491 24.375 24.375Z" stroke="#28A745" stroke-width="1.875"/>
<path d="M11.875 24.375C11.875 26.1009 10.4759 27.5 8.75 27.5C7.02411 27.5 5.625 26.1009 5.625 24.375C5.625 22.6491 7.02411 21.25 8.75 21.25C10.4759 21.25 11.875 22.6491 11.875 24.375Z" stroke="#28A745" stroke-width="1.875"/>
<path d="M18.125 24.375H11.875M24.375 24.375H25.329C25.6039 24.375 25.7414 24.375 25.8569 24.3606C26.7086 24.2545 27.3795 23.5836 27.4856 22.7319C27.5 22.6164 27.5 22.4789 27.5 22.204V18.75C27.5 14.2626 23.8624 10.625 19.375 10.625M13.75 7.5H15C16.7677 7.5 17.6516 7.5 18.2009 8.04918C18.75 8.59835 18.75 9.48224 18.75 11.25V21.875M2.5 15V21.25C2.5 22.4182 2.5 23.0024 2.7512 23.4375C2.91576 23.7225 3.15246 23.9592 3.4375 24.1237C3.8726 24.375 4.45672 24.375 5.625 24.375" stroke="#28A745" stroke-width="1.875" stroke-linecap="round" stroke-linejoin="round"/>
<path d="M9.8125 9.8125L8.125 8.6875V5.875M2.5 8.125C2.5 11.2316 5.0184 13.75 8.125 13.75C11.2316 13.75 13.75 11.2316 13.75 8.125C13.75 5.0184 11.2316 2.5 8.125 2.5C5.0184 2.5 2.5 5.0184 2.5 8.125Z" stroke="#28A745" stroke-width="1.875" stroke-linecap="round" stroke-linejoin="round"/>
</svg>
